<svg width="80" height="80" viewBox="0 0 80 80" fill="none" xmlns="http://www.w3.org/2000/svg">
<circle cx="40" cy="40" r="40" fill="#1C000D"/>
<g filter="url(#filter0_d_39_84)">
<path d="M38.2322 36.2322C37.2559 37.2085 37.2559 38.7915 38.2322 39.7678L54.1421 55.6777C55.1184 56.654 56.7014 56.654 57.6777 55.6777C58.654 54.7014 58.654 53.1184 57.6777 52.1421L43.5355 38L57.6777 23.8579C58.654 22.8816 58.654 21.2986 57.6777 20.3223C56.7014 19.346 55.1184 19.346 54.1421 20.3223L38.2322 36.2322ZM40.0001 35.5H40V40.5H40.0001V35.5Z" fill="white"/>
<path d="M20.2322 36.2322C19.2559 37.2085 19.2559 38.7915 20.2322 39.7678L36.1421 55.6777C37.1184 56.654 38.7014 56.654 39.6777 55.6777C40.654 54.7014 40.654 53.1184 39.6777 52.1421L25.5355 38L39.6777 23.8579C40.654 22.8816 40.654 21.2986 39.6777 20.3223C38.7014 19.346 37.1184 19.346 36.1421 20.3223L20.2322 36.2322ZM22.0001 35.5H22V40.5H22.0001V35.5Z" fill="white"/>
</g>
<defs>
<filter id="filter0_d_39_84" x="5.49998" y="5.59009" width="66.9099" height="64.8198" filterUnits="userSpaceOnUse" color-interpolation-filters="sRGB">
<feFlood flood-opacity="0" result="BackgroundImageFix"/>
<feColorMatrix in="SourceAlpha" type="matrix" values="0 0 0 0 0 0 0 0 0 0 0 0 0 0 0 0 0 0 127 0" result="hardAlpha"/>
<feOffset/>
<feGaussianBlur stdDeviation="7"/>
<feComposite in2="hardAlpha" operator="out"/>
<feColorMatrix type="matrix" values="0 0 0 0 1 0 0 0 0 1 0 0 0 0 1 0 0 0 0.25 0"/>
<feBlend mode="normal" in2="BackgroundImageFix" result="effect1_dropShadow_39_84"/>
<feBlend mode="normal" in="SourceGraphic" in2="effect1_dropShadow_39_84" result="shape"/>
</filter>
</defs>
</svg>
